<?xml version="1.0" encoding="UTF-8" standalone="no"?>
<!-- Created with Inkscape (http://www.inkscape.org/) -->

<svg
   xmlns:dc="http://purl.org/dc/elements/1.1/"
   xmlns:cc="http://creativecommons.org/ns#"
   xmlns:rdf="http://www.w3.org/1999/02/22-rdf-syntax-ns#"
   xmlns:svg="http://www.w3.org/2000/svg"
   xmlns="http://www.w3.org/2000/svg"
   xmlns:sodipodi="http://sodipodi.sourceforge.net/DTD/sodipodi-0.dtd"
   xmlns:inkscape="http://www.inkscape.org/namespaces/inkscape"
   width="182.85089mm"
   height="48.154167mm"
   viewBox="0 0 182.85089 48.154167"
   version="1.1"
   id="svg4586"
   inkscape:version="0.92.4 (5da689c313, 2019-01-14)"
   sodipodi:docname="drawing-1.svg">
  <defs
     id="defs4580" />
  <sodipodi:namedview
     id="base"
     pagecolor="#ffffff"
     bordercolor="#666666"
     borderopacity="1.0"
     inkscape:pageopacity="0.0"
     inkscape:pageshadow="2"
     inkscape:zoom="0.35"
     inkscape:cx="-283.02642"
     inkscape:cy="76.714287"
     inkscape:document-units="mm"
     inkscape:current-layer="layer1"
     showgrid="false"
     inkscape:window-width="3840"
     inkscape:window-height="2120"
     inkscape:window-x="-12"
     inkscape:window-y="-12"
     inkscape:window-maximized="1"
     fit-margin-top="0"
     fit-margin-left="0"
     fit-margin-right="0"
     fit-margin-bottom="0" />
  <metadata
     id="metadata4583">
    <rdf:RDF>
      <cc:Work
         rdf:about="">
        <dc:format>image/svg+xml</dc:format>
        <dc:type
           rdf:resource="http://purl.org/dc/dcmitype/StillImage" />
        <dc:title></dc:title>
      </cc:Work>
    </rdf:RDF>
  </metadata>
  <g
     inkscape:label="Layer 1"
     inkscape:groupmode="layer"
     id="layer1"
     transform="translate(-12.140026,-120.97649)">
    <g
       id="g5165"
       transform="matrix(0.26458333,0,0,0.26458333,-68.020521,80.759823)">
      <g
         id="g5161">
        <g
           id="g5159">
          <g
             id="g5157">
            <path
               id="path5131"
               d="m 382,334 78.808,-45.5 v -91 L 382,152 303.192,197.5 v 91 z"
               inkscape:connector-curvature="0"
               style="fill:#ff0000" />
            <path
               id="path5133"
               d="m 418.4,288.5 c 0,20.103 -16.297,36.4 -36.4,36.4 -20.103,0 -36.4,-16.297 -36.4,-36.4 0,-20.103 16.297,-36.4 36.4,-36.4 20.103,0 36.4,16.297 36.4,36.4 z"
               inkscape:connector-curvature="0"
               style="fill:#ffffff" />
            <path
               id="path5135"
               d="m 457.804,220.25 c 0,20.103 -16.296,36.4 -36.4,36.4 -20.103,0 -36.4,-16.297 -36.4,-36.4 0,-20.103 16.297,-36.4 36.4,-36.4 20.104,0 36.4,16.297 36.4,36.4 z"
               inkscape:connector-curvature="0"
               style="fill:#ffffff" />
            <path
               id="path5137"
               d="m 378.996,220.25 c 0,20.103 -16.297,36.4 -36.4,36.4 -20.104,0 -36.4,-16.297 -36.4,-36.4 0,-20.103 16.296,-36.4 36.4,-36.4 20.103,0 36.4,16.297 36.4,36.4 z"
               inkscape:connector-curvature="0"
               style="fill:#ffffff" />
            <path
               id="path5139"
               d="m 392.111,288.5 c 0,5.584 -4.527,10.111 -10.111,10.111 -5.584,0 -10.111,-4.527 -10.111,-10.111 0,-5.584 4.527,-10.111 10.111,-10.111 5.584,0 10.111,4.527 10.111,10.111 z"
               inkscape:connector-curvature="0"
               style="fill:#ff0000" />
            <path
               id="path5141"
               d="m 431.515,220.25 c 0,5.584 -4.526,10.111 -10.111,10.111 -5.584,0 -10.111,-4.527 -10.111,-10.111 0,-5.584 4.527,-10.111 10.111,-10.111 5.585,0 10.111,4.527 10.111,10.111 z"
               inkscape:connector-curvature="0"
               style="fill:#ff0000" />
            <path
               id="path5143"
               d="m 352.707,220.25 c 0,5.584 -4.527,10.111 -10.111,10.111 -5.585,0 -10.111,-4.527 -10.111,-10.111 0,-5.584 4.526,-10.111 10.111,-10.111 5.584,0 10.111,4.527 10.111,10.111 z"
               inkscape:connector-curvature="0"
               style="fill:#ff0000" />
            <path
               id="path5145"
               d="m 418.4,288.5 h -26.289 v 39.966 L 418.4,313.288 Z"
               inkscape:connector-curvature="0"
               style="fill:#ffffff" />
            <path
               id="path5147"
               d="m 392.111,288.5 h -3.37 v 41.608 l 3.37,-1.946 z"
               inkscape:connector-curvature="0"
               style="fill:#ff0000" />
            <path
               id="path5149"
               d="m 446.154,246.941 -17.875,-19.277 32.752,-30.37 v 35.852 z"
               inkscape:connector-curvature="0"
               style="fill:#ffffff" />
            <path
               id="path5151"
               d="m 428.279,227.664 -2.291,-2.471 30.509,-28.292 0.865,3.795 z"
               inkscape:connector-curvature="0"
               style="fill:#ff0000" />
            <path
               id="path5153"
               d="m 317.846,246.941 17.875,-19.277 -32.752,-30.37 v 35.852 z"
               inkscape:connector-curvature="0"
               style="fill:#ffffff" />
            <path
               id="path5155"
               d="m 335.721,227.664 2.291,-2.471 -30.509,-28.292 -0.865,3.795 z"
               inkscape:connector-curvature="0"
               style="fill:#ff0000" />
          </g>
        </g>
      </g>
      <g
         aria-label="bosonic"
         transform="translate(487.529,290)"
         style="font-weight:400;font-size:128px;font-family:'Good Timing Rg', 'Good Timing Rg_MSFontService', sans-serif;fill:#595959"
         id="text5163">
        <path
           d="m 48,0 c 19.2,0 33.28,-11.648 33.28,-32.384 0,-18.432 -11.264,-30.208 -33.664,-30.208 -6.912,0 -14.848,1.28 -19.584,2.56 v 13.44 c 4.736,-1.28 12.288,-2.432 18.048,-2.432 13.44,0 20.352,5.504 20.352,17.152 0,12.16 -7.68,18.304 -18.432,18.304 H 37.376 c -10.88,0 -16.512,-5.632 -16.512,-15.872 V -89.728 H 6.016 V -29.44 C 6.016,-10.624 16.512,0 36.992,0 Z"
           style="font-weight:400;font-size:128px;font-family:'Good Timing Rg', 'Good Timing Rg_MSFontService', sans-serif;fill:#595959"
           id="path5193"
           inkscape:connector-curvature="0" />
        <path
           d="m 122.748,-13.568 c -10.624,0 -18.432,-7.168 -18.432,-17.536 0,-10.24 7.808,-17.28 18.432,-17.28 h 8.832 c 10.624,0 18.432,7.04 18.432,17.28 0,10.368 -7.808,17.536 -18.432,17.536 z M 131.58,0 c 19.2,0 33.28,-12.672 33.28,-31.104 0,-18.304 -14.08,-30.848 -33.28,-30.848 h -8.704 c -19.2,0 -33.28,12.544 -33.28,30.848 0,18.432 14.08,31.104 33.28,31.104 z"
           style="font-weight:400;font-size:128px;font-family:'Good Timing Rg', 'Good Timing Rg_MSFontService', sans-serif;fill:#595959"
           id="path5195"
           inkscape:connector-curvature="0" />
        <path
           d="m 221.736,0 c 11.264,0 19.328,-7.04 19.328,-17.92 0,-10.24 -7.04,-18.56 -19.328,-18.56 h -27.52 c -5.12,0 -7.808,-2.432 -7.808,-6.528 0,-4.48 3.2,-6.528 7.808,-6.528 h 43.776 v -12.416 h -46.336 c -10.88,0 -19.328,6.912 -19.328,17.664 0,9.984 7.168,18.304 19.328,18.304 h 27.264 c 5.376,0 7.808,2.688 7.808,6.912 0,4.608 -2.944,6.784 -7.808,6.784 H 173.096 V 0 Z"
           style="font-weight:400;font-size:128px;font-family:'Good Timing Rg', 'Good Timing Rg_MSFontService', sans-serif;fill:#595959"
           id="path5197"
           inkscape:connector-curvature="0" />
        <path
           d="m 281.748,-13.568 c -10.624,0 -18.432,-7.168 -18.432,-17.536 0,-10.24 7.808,-17.28 18.432,-17.28 h 8.832 c 10.624,0 18.432,7.04 18.432,17.28 0,10.368 -7.808,17.536 -18.432,17.536 z M 290.58,0 c 19.2,0 33.28,-12.672 33.28,-31.104 0,-18.304 -14.08,-30.848 -33.28,-30.848 h -8.704 c -19.2,0 -33.28,12.544 -33.28,30.848 0,18.432 14.08,31.104 33.28,31.104 z"
           style="font-weight:400;font-size:128px;font-family:'Good Timing Rg', 'Good Timing Rg_MSFontService', sans-serif;fill:#595959"
           id="path5199"
           inkscape:connector-curvature="0" />
        <path
           d="m 406.994,0 v -32.384 c 0,-18.816 -10.624,-29.568 -30.976,-29.568 H 333.906 V 0 h 14.848 v -48.384 h 26.88 c 10.88,0 16.512,5.632 16.512,15.872 V 0 Z"
           style="font-weight:400;font-size:128px;font-family:'Good Timing Rg', 'Good Timing Rg_MSFontService', sans-serif;fill:#595959"
           id="path5201"
           inkscape:connector-curvature="0" />
        <path
           d="M 434.504,0 V -61.952 H 419.656 V 0 Z m -6.272,-70.784 c 3.968,0 6.656,-2.56 6.656,-6.656 0,-4.096 -2.688,-6.656 -6.656,-6.656 h -2.304 c -3.968,0 -6.784,2.56 -6.784,6.656 0,4.096 2.816,6.656 6.784,6.656 z"
           style="font-weight:400;font-size:128px;font-family:'Good Timing Rg', 'Good Timing Rg_MSFontService', sans-serif;fill:#595959"
           id="path5203"
           inkscape:connector-curvature="0" />
        <path
           d="m 506.53,0 v -13.568 h -28.032 c -10.624,0 -18.432,-7.168 -18.432,-17.536 0,-10.24 7.808,-17.28 18.432,-17.28 h 28.032 v -13.568 h -27.904 c -19.2,0 -33.28,12.544 -33.28,30.848 0,18.432 14.08,31.104 33.28,31.104 z"
           style="font-weight:400;font-size:128px;font-family:'Good Timing Rg', 'Good Timing Rg_MSFontService', sans-serif;fill:#595959"
           id="path5205"
           inkscape:connector-curvature="0" />
      </g>
    </g>
  </g>
</svg>
